# MagicaVoxel @ Ephtracy

# group
o 

# material
mtllib Laboratorio-18.mtl
usemtl palette

# normals
vn 0 0 -1
vn 0 0 1
vn -1 0 0
vn 1 0 0
vn 0 -1 0
vn 0 1 0

# texcoords
vt 0.841797 0.5
vt 0.958984 0.5
vt 0.986328 0.5

# verts
v -25.9 0 0
v -24.2 0 0
v -25.9 20 0
v -24.2 20 0
v -24.4 10.6 1.5
v -24.3 10.6 1.5
v -24.4 10.7 1.5
v -24.3 10.7 1.5
v -24.4 9.3 2
v -24.3 9.3 2
v -24.4 10.6 2
v -24.3 10.6 2
v -24.4 9.3 3.1
v -24.3 9.3 3.1
v -24.4 10.7 3.1
v -24.3 10.7 3.1
v -24.4 9.3 3.9
v -24.3 9.3 3.9
v -24.4 9.4 3.9
v -24.3 9.4 3.9
v -24.4 10.5 3.9
v -24.3 10.5 3.9
v -24.4 10.7 3.9
v -24.3 10.7 3.9
v -24.4 9.4 4
v -24.3 9.4 4
v -24.4 9.7 4
v -24.3 9.7 4
v -24.4 10.4 4
v -24.3 10.4 4
v -24.4 10.5 4
v -24.3 10.5 4
v -24.4 9.7 4.1
v -24.3 9.7 4.1
v -24.4 9.9 4.1
v -24.3 9.9 4.1
v -24.4 10.2 4.1
v -24.3 10.2 4.1
v -24.4 10.4 4.1
v -24.3 10.4 4.1
v -24.4 9.9 4.2
v -24.3 9.9 4.2
v -24.4 10.1 4.2
v -24.3 10.1 4.2
v -24.4 10.1 4.3
v -24.3 10.1 4.3
v -24.4 10.2 4.3
v -24.3 10.2 4.3
v -24.4 9.9 4.4
v -24.3 9.9 4.4
v -24.4 10 4.4
v -24.3 10 4.4
v -24.4 10.2 4.4
v -24.3 10.2 4.4
v -24.4 10.3 4.4
v -24.3 10.3 4.4
v -24.4 9.6 4.5
v -24.3 9.6 4.5
v -24.4 9.9 4.5
v -24.3 9.9 4.5
v -24.4 10.3 4.5
v -24.3 10.3 4.5
v -24.4 10.4 4.5
v -24.3 10.4 4.5
v -24.4 9.3 4.6
v -24.3 9.3 4.6
v -24.4 9.6 4.6
v -24.3 9.6 4.6
v -24.4 10.4 4.6
v -24.3 10.4 4.6
v -24.4 10.6 4.6
v -24.3 10.6 4.6
v -24.4 10.6 4.7
v -24.3 10.6 4.7
v -24.4 10.7 4.7
v -24.3 10.7 4.7
v -24.4 9.3 4.9
v -24.3 9.3 4.9
v -24.4 9.4 4.9
v -24.3 9.4 4.9
v -24.4 10 4.9
v -24.3 10 4.9
v -24.4 10.1 4.9
v -24.3 10.1 4.9
v -24.4 10.6 4.9
v -24.3 10.6 4.9
v -24.4 10.7 4.9
v -24.3 10.7 4.9
v -24.4 9.4 5.5
v -24.3 9.4 5.5
v -24.4 10 5.5
v -24.3 10 5.5
v -24.4 10.1 5.5
v -24.3 10.1 5.5
v -24.4 10.6 5.5
v -24.3 10.6 5.5
v -24.4 9.1 5.8
v -24.2 9.1 5.8
v -24.4 10.9 5.8
v -24.2 10.9 5.8
v -25.9 1 6.3
v -24.2 1 6.3
v -25.9 8.7 6.3
v -24.2 8.7 6.3
v -25.9 1 0.9
v -24.2 1 0.9
v -25.9 8.7 0.9
v -24.2 8.7 0.9
v -24.4 9.1 1.3
v -24.2 9.1 1.3
v -24.4 10.9 1.3
v -24.2 10.9 1.3
v -24.4 9.3 2.2
v -24.3 9.3 2.2
v -24.4 10.6 2.2
v -24.3 10.6 2.2
v -24.4 10.6 2.6
v -24.3 10.6 2.6
v -24.4 10.7 2.6
v -24.3 10.7 2.6
v -24.4 9.3 3.3
v -24.3 9.3 3.3
v -24.4 10.7 3.3
v -24.3 10.7 3.3
v -24.4 10.6 4
v -24.3 10.6 4
v -24.4 10.7 4
v -24.3 10.7 4
v -24.4 9.3 4.1
v -24.3 9.3 4.1
v -24.4 9.6 4.1
v -24.3 9.6 4.1
v -24.4 10.4 4.1
v -24.3 10.4 4.1
v -24.4 10.6 4.1
v -24.3 10.6 4.1
v -24.4 9.6 4.2
v -24.3 9.6 4.2
v -24.4 9.9 4.2
v -24.3 9.9 4.2
v -24.4 10.3 4.2
v -24.3 10.3 4.2
v -24.4 10.4 4.2
v -24.3 10.4 4.2
v -24.4 9.9 4.3
v -24.3 9.9 4.3
v -24.4 10 4.3
v -24.3 10 4.3
v -24.4 10.2 4.3
v -24.3 10.2 4.3
v -24.4 10.3 4.3
v -24.3 10.3 4.3
v -24.4 10.1 4.4
v -24.3 10.1 4.4
v -24.4 10.2 4.4
v -24.3 10.2 4.4
v -24.4 9.9 4.5
v -24.3 9.9 4.5
v -24.4 10.1 4.5
v -24.3 10.1 4.5
v -24.4 9.7 4.6
v -24.3 9.7 4.6
v -24.4 9.9 4.6
v -24.3 9.9 4.6
v -24.4 10.2 4.6
v -24.3 10.2 4.6
v -24.4 10.4 4.6
v -24.3 10.4 4.6
v -24.4 9.4 4.7
v -24.3 9.4 4.7
v -24.4 9.7 4.7
v -24.3 9.7 4.7
v -24.4 10.4 4.7
v -24.3 10.4 4.7
v -24.4 10.5 4.7
v -24.3 10.5 4.7
v -24.4 9.3 4.8
v -24.3 9.3 4.8
v -24.4 9.4 4.8
v -24.3 9.4 4.8
v -24.4 10.5 4.8
v -24.3 10.5 4.8
v -24.4 10.7 4.8
v -24.3 10.7 4.8
v -24.4 9.3 5.6
v -24.3 9.3 5.6
v -24.4 10.7 5.6
v -24.3 10.7 5.6
v -25.9 0 25.6
v -24.2 0 25.6
v -25.9 20 25.6
v -24.2 20 25.6
v -25.9 0 0
v -25.9 20 0
v -25.9 1 0.9
v -25.9 8.7 0.9
v -25.9 1 6.3
v -25.9 8.7 6.3
v -25.9 0 25.6
v -25.9 20 25.6
v -24.4 9.1 1.3
v -24.4 10.9 1.3
v -24.4 10.6 1.5
v -24.4 10.7 1.5
v -24.4 9.3 2
v -24.4 10.6 2
v -24.4 9.3 2.2
v -24.4 10.6 2.2
v -24.4 10.6 2.6
v -24.4 10.7 2.6
v -24.4 9.3 3.1
v -24.4 10.7 3.1
v -24.4 9.3 3.3
v -24.4 10.7 3.3
v -24.4 9.3 3.9
v -24.4 9.4 3.9
v -24.4 10.5 3.9
v -24.4 10.7 3.9
v -24.4 9.4 4
v -24.4 9.7 4
v -24.4 10.4 4
v -24.4 10.5 4
v -24.4 10.6 4
v -24.4 10.7 4
v -24.4 9.3 4.1
v -24.4 9.6 4.1
v -24.4 9.7 4.1
v -24.4 9.9 4.1
v -24.4 10.2 4.1
v -24.4 10.4 4.1
v -24.4 10.6 4.1
v -24.4 9.6 4.2
v -24.4 9.9 4.2
v -24.4 10.1 4.2
v -24.4 10.3 4.2
v -24.4 10.4 4.2
v -24.4 9.9 4.3
v -24.4 10 4.3
v -24.4 10.1 4.3
v -24.4 10.2 4.3
v -24.4 10.3 4.3
v -24.4 9.9 4.4
v -24.4 10 4.4
v -24.4 10.1 4.4
v -24.4 10.2 4.4
v -24.4 10.3 4.4
v -24.4 9.6 4.5
v -24.4 9.9 4.5
v -24.4 10.1 4.5
v -24.4 10.3 4.5
v -24.4 10.4 4.5
v -24.4 9.3 4.6
v -24.4 9.6 4.6
v -24.4 9.7 4.6
v -24.4 9.9 4.6
v -24.4 10.2 4.6
v -24.4 10.4 4.6
v -24.4 10.6 4.6
v -24.4 9.4 4.7
v -24.4 9.7 4.7
v -24.4 10.4 4.7
v -24.4 10.5 4.7
v -24.4 10.6 4.7
v -24.4 10.7 4.7
v -24.4 9.3 4.8
v -24.4 9.4 4.8
v -24.4 10.5 4.8
v -24.4 10.7 4.8
v -24.4 9.3 4.9
v -24.4 9.4 4.9
v -24.4 10 4.9
v -24.4 10.1 4.9
v -24.4 10.6 4.9
v -24.4 10.7 4.9
v -24.4 9.4 5.5
v -24.4 10 5.5
v -24.4 10.1 5.5
v -24.4 10.6 5.5
v -24.4 9.3 5.6
v -24.4 10.7 5.6
v -24.4 9.1 5.8
v -24.4 10.9 5.8
v -24.3 10.6 1.5
v -24.3 10.7 1.5
v -24.3 9.3 2
v -24.3 10.6 2
v -24.3 9.3 2.2
v -24.3 10.6 2.2
v -24.3 10.6 2.6
v -24.3 10.7 2.6
v -24.3 9.3 3.1
v -24.3 10.7 3.1
v -24.3 9.3 3.3
v -24.3 10.7 3.3
v -24.3 9.3 3.9
v -24.3 9.4 3.9
v -24.3 10.5 3.9
v -24.3 10.7 3.9
v -24.3 9.4 4
v -24.3 9.7 4
v -24.3 10.4 4
v -24.3 10.5 4
v -24.3 10.6 4
v -24.3 10.7 4
v -24.3 9.3 4.1
v -24.3 9.6 4.1
v -24.3 9.7 4.1
v -24.3 9.9 4.1
v -24.3 10.2 4.1
v -24.3 10.4 4.1
v -24.3 10.6 4.1
v -24.3 9.6 4.2
v -24.3 9.9 4.2
v -24.3 10.1 4.2
v -24.3 10.3 4.2
v -24.3 10.4 4.2
v -24.3 9.9 4.3
v -24.3 10 4.3
v -24.3 10.1 4.3
v -24.3 10.2 4.3
v -24.3 10.3 4.3
v -24.3 9.9 4.4
v -24.3 10 4.4
v -24.3 10.1 4.4
v -24.3 10.2 4.4
v -24.3 10.3 4.4
v -24.3 9.6 4.5
v -24.3 9.9 4.5
v -24.3 10.1 4.5
v -24.3 10.3 4.5
v -24.3 10.4 4.5
v -24.3 9.3 4.6
v -24.3 9.6 4.6
v -24.3 9.7 4.6
v -24.3 9.9 4.6
v -24.3 10.2 4.6
v -24.3 10.4 4.6
v -24.3 10.6 4.6
v -24.3 9.4 4.7
v -24.3 9.7 4.7
v -24.3 10.4 4.7
v -24.3 10.5 4.7
v -24.3 10.6 4.7
v -24.3 10.7 4.7
v -24.3 9.3 4.8
v -24.3 9.4 4.8
v -24.3 10.5 4.8
v -24.3 10.7 4.8
v -24.3 9.3 4.9
v -24.3 9.4 4.9
v -24.3 10 4.9
v -24.3 10.1 4.9
v -24.3 10.6 4.9
v -24.3 10.7 4.9
v -24.3 9.4 5.5
v -24.3 10 5.5
v -24.3 10.1 5.5
v -24.3 10.6 5.5
v -24.3 9.3 5.6
v -24.3 10.7 5.6
v -24.2 0 0
v -24.2 20 0
v -24.2 1 0.9
v -24.2 8.7 0.9
v -24.2 9.1 1.3
v -24.2 10.9 1.3
v -24.2 9.1 5.8
v -24.2 10.9 5.8
v -24.2 1 6.3
v -24.2 8.7 6.3
v -24.2 0 25.6
v -24.2 20 25.6
v -25.9 0 0
v -25.9 0 25.6
v -24.2 0 0
v -24.2 0 25.6
v -25.9 8.7 0.9
v -25.9 8.7 6.3
v -24.2 8.7 0.9
v -24.2 8.7 6.3
v -24.4 9.3 2
v -24.4 9.3 2.2
v -24.4 9.3 3.1
v -24.4 9.3 3.3
v -24.4 9.3 3.9
v -24.4 9.3 4.1
v -24.4 9.3 4.6
v -24.4 9.3 4.8
v -24.4 9.3 4.9
v -24.4 9.3 5.6
v -24.3 9.3 2
v -24.3 9.3 2.2
v -24.3 9.3 3.1
v -24.3 9.3 3.3
v -24.3 9.3 3.9
v -24.3 9.3 4.1
v -24.3 9.3 4.6
v -24.3 9.3 4.8
v -24.3 9.3 4.9
v -24.3 9.3 5.6
v -24.4 9.6 4.1
v -24.4 9.6 4.2
v -24.4 9.6 4.5
v -24.4 9.6 4.6
v -24.3 9.6 4.1
v -24.3 9.6 4.2
v -24.3 9.6 4.5
v -24.3 9.6 4.6
v -24.4 9.9 4.2
v -24.4 9.9 4.3
v -24.4 9.9 4.4
v -24.4 9.9 4.5
v -24.3 9.9 4.2
v -24.3 9.9 4.3
v -24.3 9.9 4.4
v -24.3 9.9 4.5
v -24.4 10 4.3
v -24.4 10 4.4
v -24.4 10 4.9
v -24.4 10 5.5
v -24.3 10 4.3
v -24.3 10 4.4
v -24.3 10 4.9
v -24.3 10 5.5
v -24.4 10.2 4.1
v -24.4 10.2 4.3
v -24.4 10.2 4.4
v -24.4 10.2 4.6
v -24.3 10.2 4.1
v -24.3 10.2 4.3
v -24.3 10.2 4.4
v -24.3 10.2 4.6
v -24.4 10.4 4
v -24.4 10.4 4.1
v -24.4 10.4 4.6
v -24.4 10.4 4.7
v -24.3 10.4 4
v -24.3 10.4 4.1
v -24.3 10.4 4.6
v -24.3 10.4 4.7
v -24.4 10.5 3.9
v -24.4 10.5 4
v -24.4 10.5 4.7
v -24.4 10.5 4.8
v -24.3 10.5 3.9
v -24.3 10.5 4
v -24.3 10.5 4.7
v -24.3 10.5 4.8
v -24.4 10.6 1.5
v -24.4 10.6 2
v -24.4 10.6 2.2
v -24.4 10.6 2.6
v -24.4 10.6 4.9
v -24.4 10.6 5.5
v -24.3 10.6 1.5
v -24.3 10.6 2
v -24.3 10.6 2.2
v -24.3 10.6 2.6
v -24.3 10.6 4.9
v -24.3 10.6 5.5
v -24.4 10.9 1.3
v -24.4 10.9 5.8
v -24.2 10.9 1.3
v -24.2 10.9 5.8
v -25.9 1 0.9
v -25.9 1 6.3
v -24.2 1 0.9
v -24.2 1 6.3
v -24.4 9.1 1.3
v -24.4 9.1 5.8
v -24.2 9.1 1.3
v -24.2 9.1 5.8
v -24.4 9.4 3.9
v -24.4 9.4 4
v -24.4 9.4 4.7
v -24.4 9.4 4.8
v -24.4 9.4 4.9
v -24.4 9.4 5.5
v -24.3 9.4 3.9
v -24.3 9.4 4
v -24.3 9.4 4.7
v -24.3 9.4 4.8
v -24.3 9.4 4.9
v -24.3 9.4 5.5
v -24.4 9.7 4
v -24.4 9.7 4.1
v -24.4 9.7 4.6
v -24.4 9.7 4.7
v -24.3 9.7 4
v -24.3 9.7 4.1
v -24.3 9.7 4.6
v -24.3 9.7 4.7
v -24.4 9.9 4.1
v -24.4 9.9 4.2
v -24.4 9.9 4.5
v -24.4 9.9 4.6
v -24.3 9.9 4.1
v -24.3 9.9 4.2
v -24.3 9.9 4.5
v -24.3 9.9 4.6
v -24.4 10.1 4.2
v -24.4 10.1 4.3
v -24.4 10.1 4.4
v -24.4 10.1 4.5
v -24.4 10.1 4.9
v -24.4 10.1 5.5
v -24.3 10.1 4.2
v -24.3 10.1 4.3
v -24.3 10.1 4.4
v -24.3 10.1 4.5
v -24.3 10.1 4.9
v -24.3 10.1 5.5
v -24.4 10.2 4.3
v -24.4 10.2 4.4
v -24.3 10.2 4.3
v -24.3 10.2 4.4
v -24.4 10.3 4.2
v -24.4 10.3 4.3
v -24.4 10.3 4.4
v -24.4 10.3 4.5
v -24.3 10.3 4.2
v -24.3 10.3 4.3
v -24.3 10.3 4.4
v -24.3 10.3 4.5
v -24.4 10.4 4.1
v -24.4 10.4 4.2
v -24.4 10.4 4.5
v -24.4 10.4 4.6
v -24.3 10.4 4.1
v -24.3 10.4 4.2
v -24.3 10.4 4.5
v -24.3 10.4 4.6
v -24.4 10.6 4
v -24.4 10.6 4.1
v -24.4 10.6 4.6
v -24.4 10.6 4.7
v -24.3 10.6 4
v -24.3 10.6 4.1
v -24.3 10.6 4.6
v -24.3 10.6 4.7
v -24.4 10.7 1.5
v -24.4 10.7 2.6
v -24.4 10.7 3.1
v -24.4 10.7 3.3
v -24.4 10.7 3.9
v -24.4 10.7 4
v -24.4 10.7 4.7
v -24.4 10.7 4.8
v -24.4 10.7 4.9
v -24.4 10.7 5.6
v -24.3 10.7 1.5
v -24.3 10.7 2.6
v -24.3 10.7 3.1
v -24.3 10.7 3.3
v -24.3 10.7 3.9
v -24.3 10.7 4
v -24.3 10.7 4.7
v -24.3 10.7 4.8
v -24.3 10.7 4.9
v -24.3 10.7 5.6
v -25.9 20 0
v -25.9 20 25.6
v -24.2 20 0
v -24.2 20 25.6

# faces
f 3/3/1 2/3/1 1/3/1
f 4/3/1 2/3/1 3/3/1
f 7/1/1 6/1/1 5/1/1
f 8/1/1 6/1/1 7/1/1
f 11/1/1 10/1/1 9/1/1
f 12/1/1 10/1/1 11/1/1
f 15/1/1 14/1/1 13/1/1
f 16/1/1 14/1/1 15/1/1
f 19/1/1 18/1/1 17/1/1
f 20/1/1 18/1/1 19/1/1
f 23/1/1 22/1/1 21/1/1
f 24/1/1 22/1/1 23/1/1
f 27/1/1 26/1/1 25/1/1
f 28/1/1 26/1/1 27/1/1
f 31/1/1 30/1/1 29/1/1
f 32/1/1 30/1/1 31/1/1
f 35/1/1 34/1/1 33/1/1
f 36/1/1 34/1/1 35/1/1
f 39/1/1 38/1/1 37/1/1
f 40/1/1 38/1/1 39/1/1
f 43/1/1 42/1/1 41/1/1
f 44/1/1 42/1/1 43/1/1
f 47/1/1 46/1/1 45/1/1
f 48/1/1 46/1/1 47/1/1
f 51/1/1 50/1/1 49/1/1
f 52/1/1 50/1/1 51/1/1
f 55/1/1 54/1/1 53/1/1
f 56/1/1 54/1/1 55/1/1
f 59/1/1 58/1/1 57/1/1
f 60/1/1 58/1/1 59/1/1
f 63/1/1 62/1/1 61/1/1
f 64/1/1 62/1/1 63/1/1
f 67/1/1 66/1/1 65/1/1
f 68/1/1 66/1/1 67/1/1
f 71/1/1 70/1/1 69/1/1
f 72/1/1 70/1/1 71/1/1
f 75/1/1 74/1/1 73/1/1
f 76/1/1 74/1/1 75/1/1
f 79/1/1 78/1/1 77/1/1
f 80/1/1 78/1/1 79/1/1
f 83/1/1 82/1/1 81/1/1
f 84/1/1 82/1/1 83/1/1
f 87/1/1 86/1/1 85/1/1
f 88/1/1 86/1/1 87/1/1
f 91/1/1 90/1/1 89/1/1
f 92/1/1 90/1/1 91/1/1
f 95/1/1 94/1/1 93/1/1
f 96/1/1 94/1/1 95/1/1
f 99/3/1 98/3/1 97/3/1
f 100/3/1 98/3/1 99/3/1
f 103/3/1 102/3/1 101/3/1
f 104/3/1 102/3/1 103/3/1
f 105/3/2 106/3/2 107/3/2
f 107/3/2 106/3/2 108/3/2
f 109/3/2 110/3/2 111/3/2
f 111/3/2 110/3/2 112/3/2
f 113/1/2 114/1/2 115/1/2
f 115/1/2 114/1/2 116/1/2
f 117/1/2 118/1/2 119/1/2
f 119/1/2 118/1/2 120/1/2
f 121/1/2 122/1/2 123/1/2
f 123/1/2 122/1/2 124/1/2
f 125/1/2 126/1/2 127/1/2
f 127/1/2 126/1/2 128/1/2
f 129/1/2 130/1/2 131/1/2
f 131/1/2 130/1/2 132/1/2
f 133/1/2 134/1/2 135/1/2
f 135/1/2 134/1/2 136/1/2
f 137/1/2 138/1/2 139/1/2
f 139/1/2 138/1/2 140/1/2
f 141/1/2 142/1/2 143/1/2
f 143/1/2 142/1/2 144/1/2
f 145/1/2 146/1/2 147/1/2
f 147/1/2 146/1/2 148/1/2
f 149/1/2 150/1/2 151/1/2
f 151/1/2 150/1/2 152/1/2
f 153/1/2 154/1/2 155/1/2
f 155/1/2 154/1/2 156/1/2
f 157/1/2 158/1/2 159/1/2
f 159/1/2 158/1/2 160/1/2
f 161/1/2 162/1/2 163/1/2
f 163/1/2 162/1/2 164/1/2
f 165/1/2 166/1/2 167/1/2
f 167/1/2 166/1/2 168/1/2
f 169/1/2 170/1/2 171/1/2
f 171/1/2 170/1/2 172/1/2
f 173/1/2 174/1/2 175/1/2
f 175/1/2 174/1/2 176/1/2
f 177/1/2 178/1/2 179/1/2
f 179/1/2 178/1/2 180/1/2
f 181/1/2 182/1/2 183/1/2
f 183/1/2 182/1/2 184/1/2
f 185/1/2 186/1/2 187/1/2
f 187/1/2 186/1/2 188/1/2
f 189/3/2 190/3/2 191/3/2
f 191/3/2 190/3/2 192/3/2
f 195/3/3 194/3/3 193/3/3
f 196/3/3 194/3/3 195/3/3
f 197/3/3 195/3/3 193/3/3
f 198/3/3 194/3/3 196/3/3
f 199/3/3 197/3/3 193/3/3
f 199/3/3 198/3/3 197/3/3
f 200/3/3 194/3/3 198/3/3
f 200/3/3 198/3/3 199/3/3
f 201/2/4 202/2/4 203/2/4
f 203/2/4 202/2/4 204/2/4
f 201/2/4 203/2/4 205/2/4
f 205/2/4 203/2/4 206/2/4
f 201/2/4 205/2/4 207/2/4
f 207/2/4 208/2/4 209/2/4
f 204/2/4 202/2/4 210/2/4
f 207/2/4 209/2/4 211/2/4
f 209/2/4 210/2/4 211/2/4
f 201/2/4 207/2/4 211/2/4
f 210/2/4 202/2/4 212/2/4
f 211/2/4 210/2/4 212/2/4
f 201/2/4 211/2/4 213/2/4
f 212/2/4 202/2/4 214/2/4
f 201/2/4 213/2/4 215/2/4
f 213/2/4 214/2/4 215/2/4
f 215/2/4 214/2/4 216/2/4
f 216/2/4 214/2/4 217/2/4
f 214/2/4 202/2/4 218/2/4
f 217/2/4 214/2/4 218/2/4
f 216/2/4 217/2/4 219/2/4
f 219/2/4 217/2/4 220/2/4
f 220/2/4 217/2/4 221/2/4
f 221/2/4 217/2/4 222/2/4
f 218/2/4 202/2/4 224/2/4
f 201/2/4 215/2/4 225/2/4
f 220/2/4 221/2/4 227/2/4
f 227/2/4 221/2/4 228/2/4
f 228/2/4 221/2/4 229/2/4
f 229/2/4 221/2/4 230/2/4
f 223/2/4 224/2/4 231/2/4
f 225/2/4 226/2/4 232/2/4
f 228/2/4 229/2/4 233/2/4
f 233/2/4 229/2/4 234/2/4
f 230/2/4 231/2/4 236/2/4
f 232/2/4 233/2/4 237/2/4
f 234/2/4 229/2/4 239/2/4
f 239/2/4 229/2/4 240/2/4
f 235/2/4 236/2/4 241/2/4
f 237/2/4 238/2/4 242/2/4
f 232/2/4 237/2/4 242/2/4
f 242/2/4 238/2/4 243/2/4
f 240/2/4 241/2/4 245/2/4
f 241/2/4 236/2/4 246/2/4
f 245/2/4 241/2/4 246/2/4
f 225/2/4 232/2/4 247/2/4
f 232/2/4 242/2/4 247/2/4
f 247/2/4 242/2/4 248/2/4
f 244/2/4 245/2/4 249/2/4
f 246/2/4 236/2/4 250/2/4
f 236/2/4 231/2/4 251/2/4
f 250/2/4 236/2/4 251/2/4
f 201/2/4 225/2/4 252/2/4
f 225/2/4 247/2/4 252/2/4
f 252/2/4 247/2/4 253/2/4
f 248/2/4 249/2/4 255/2/4
f 249/2/4 245/2/4 256/2/4
f 255/2/4 249/2/4 256/2/4
f 251/2/4 231/2/4 257/2/4
f 231/2/4 224/2/4 258/2/4
f 257/2/4 231/2/4 258/2/4
f 256/2/4 257/2/4 260/2/4
f 255/2/4 256/2/4 260/2/4
f 254/2/4 255/2/4 260/2/4
f 260/2/4 257/2/4 261/2/4
f 258/2/4 224/2/4 263/2/4
f 224/2/4 202/2/4 264/2/4
f 263/2/4 224/2/4 264/2/4
f 201/2/4 252/2/4 265/2/4
f 261/2/4 262/2/4 266/2/4
f 259/2/4 260/2/4 266/2/4
f 260/2/4 261/2/4 266/2/4
f 266/2/4 262/2/4 267/2/4
f 264/2/4 202/2/4 268/2/4
f 201/2/4 265/2/4 269/2/4
f 267/2/4 268/2/4 269/2/4
f 266/2/4 267/2/4 269/2/4
f 265/2/4 266/2/4 269/2/4
f 269/2/4 268/2/4 270/2/4
f 270/2/4 268/2/4 271/2/4
f 271/2/4 268/2/4 272/2/4
f 272/2/4 268/2/4 273/2/4
f 268/2/4 202/2/4 274/2/4
f 273/2/4 268/2/4 274/2/4
f 270/2/4 271/2/4 275/2/4
f 275/2/4 271/2/4 276/2/4
f 272/2/4 273/2/4 277/2/4
f 277/2/4 273/2/4 278/2/4
f 201/2/4 269/2/4 279/2/4
f 274/2/4 202/2/4 280/2/4
f 201/2/4 279/2/4 281/2/4
f 279/2/4 280/2/4 281/2/4
f 280/2/4 202/2/4 282/2/4
f 281/2/4 280/2/4 282/2/4
f 283/1/4 284/1/4 286/1/4
f 285/1/4 286/1/4 287/1/4
f 286/1/4 284/1/4 288/1/4
f 287/1/4 286/1/4 288/1/4
f 288/1/4 284/1/4 289/1/4
f 289/1/4 284/1/4 290/1/4
f 291/1/4 292/1/4 293/1/4
f 293/1/4 292/1/4 294/1/4
f 295/1/4 296/1/4 299/1/4
f 297/1/4 298/1/4 302/1/4
f 302/1/4 298/1/4 303/1/4
f 303/1/4 298/1/4 304/1/4
f 299/1/4 300/1/4 305/1/4
f 295/1/4 299/1/4 305/1/4
f 305/1/4 300/1/4 306/1/4
f 306/1/4 300/1/4 307/1/4
f 302/1/4 303/1/4 310/1/4
f 301/1/4 302/1/4 310/1/4
f 310/1/4 303/1/4 311/1/4
f 307/1/4 308/1/4 312/1/4
f 306/1/4 307/1/4 312/1/4
f 312/1/4 308/1/4 313/1/4
f 309/1/4 310/1/4 315/1/4
f 315/1/4 310/1/4 316/1/4
f 313/1/4 314/1/4 317/1/4
f 317/1/4 314/1/4 318/1/4
f 318/1/4 314/1/4 319/1/4
f 309/1/4 315/1/4 320/1/4
f 320/1/4 315/1/4 321/1/4
f 318/1/4 319/1/4 323/1/4
f 319/1/4 320/1/4 323/1/4
f 323/1/4 320/1/4 324/1/4
f 324/1/4 320/1/4 325/1/4
f 322/1/4 323/1/4 328/1/4
f 323/1/4 324/1/4 328/1/4
f 328/1/4 324/1/4 329/1/4
f 325/1/4 326/1/4 330/1/4
f 327/1/4 328/1/4 333/1/4
f 333/1/4 328/1/4 334/1/4
f 334/1/4 328/1/4 335/1/4
f 325/1/4 330/1/4 336/1/4
f 330/1/4 331/1/4 336/1/4
f 336/1/4 331/1/4 337/1/4
f 333/1/4 334/1/4 339/1/4
f 332/1/4 333/1/4 339/1/4
f 339/1/4 334/1/4 340/1/4
f 337/1/4 338/1/4 341/1/4
f 341/1/4 338/1/4 342/1/4
f 342/1/4 338/1/4 343/1/4
f 332/1/4 339/1/4 345/1/4
f 345/1/4 339/1/4 346/1/4
f 342/1/4 343/1/4 347/1/4
f 343/1/4 344/1/4 347/1/4
f 347/1/4 344/1/4 348/1/4
f 349/1/4 350/1/4 355/1/4
f 351/1/4 352/1/4 356/1/4
f 356/1/4 352/1/4 357/1/4
f 353/1/4 354/1/4 358/1/4
f 356/1/4 357/1/4 359/1/4
f 357/1/4 358/1/4 359/1/4
f 349/1/4 355/1/4 359/1/4
f 355/1/4 356/1/4 359/1/4
f 358/1/4 354/1/4 360/1/4
f 359/1/4 358/1/4 360/1/4
f 361/3/4 362/3/4 363/3/4
f 363/3/4 362/3/4 364/3/4
f 364/3/4 362/3/4 365/3/4
f 365/3/4 362/3/4 366/3/4
f 364/3/4 365/3/4 367/3/4
f 366/3/4 362/3/4 368/3/4
f 361/3/4 363/3/4 369/3/4
f 367/3/4 368/3/4 370/3/4
f 364/3/4 367/3/4 370/3/4
f 361/3/4 369/3/4 371/3/4
f 369/3/4 370/3/4 371/3/4
f 370/3/4 368/3/4 372/3/4
f 371/3/4 370/3/4 372/3/4
f 368/3/4 362/3/4 372/3/4
f 375/3/5 374/3/5 373/3/5
f 376/3/5 374/3/5 375/3/5
f 379/3/5 378/3/5 377/3/5
f 380/3/5 378/3/5 379/3/5
f 391/1/5 382/1/5 381/1/5
f 392/1/5 382/1/5 391/1/5
f 393/1/5 384/1/5 383/1/5
f 394/1/5 384/1/5 393/1/5
f 395/1/5 386/1/5 385/1/5
f 396/1/5 386/1/5 395/1/5
f 397/1/5 388/1/5 387/1/5
f 398/1/5 388/1/5 397/1/5
f 399/1/5 390/1/5 389/1/5
f 400/1/5 390/1/5 399/1/5
f 405/1/5 402/1/5 401/1/5
f 406/1/5 402/1/5 405/1/5
f 407/1/5 404/1/5 403/1/5
f 408/1/5 404/1/5 407/1/5
f 413/1/5 410/1/5 409/1/5
f 414/1/5 410/1/5 413/1/5
f 415/1/5 412/1/5 411/1/5
f 416/1/5 412/1/5 415/1/5
f 421/1/5 418/1/5 417/1/5
f 422/1/5 418/1/5 421/1/5
f 423/1/5 420/1/5 419/1/5
f 424/1/5 420/1/5 423/1/5
f 429/1/5 426/1/5 425/1/5
f 430/1/5 426/1/5 429/1/5
f 431/1/5 428/1/5 427/1/5
f 432/1/5 428/1/5 431/1/5
f 437/1/5 434/1/5 433/1/5
f 438/1/5 434/1/5 437/1/5
f 439/1/5 436/1/5 435/1/5
f 440/1/5 436/1/5 439/1/5
f 445/1/5 442/1/5 441/1/5
f 446/1/5 442/1/5 445/1/5
f 447/1/5 444/1/5 443/1/5
f 448/1/5 444/1/5 447/1/5
f 455/1/5 450/1/5 449/1/5
f 456/1/5 450/1/5 455/1/5
f 457/1/5 452/1/5 451/1/5
f 458/1/5 452/1/5 457/1/5
f 459/1/5 454/1/5 453/1/5
f 460/1/5 454/1/5 459/1/5
f 463/3/5 462/3/5 461/3/5
f 464/3/5 462/3/5 463/3/5
f 465/3/6 466/3/6 467/3/6
f 467/3/6 466/3/6 468/3/6
f 469/3/6 470/3/6 471/3/6
f 471/3/6 470/3/6 472/3/6
f 473/1/6 474/1/6 479/1/6
f 479/1/6 474/1/6 480/1/6
f 475/1/6 476/1/6 481/1/6
f 481/1/6 476/1/6 482/1/6
f 477/1/6 478/1/6 483/1/6
f 483/1/6 478/1/6 484/1/6
f 485/1/6 486/1/6 489/1/6
f 489/1/6 486/1/6 490/1/6
f 487/1/6 488/1/6 491/1/6
f 491/1/6 488/1/6 492/1/6
f 493/1/6 494/1/6 497/1/6
f 497/1/6 494/1/6 498/1/6
f 495/1/6 496/1/6 499/1/6
f 499/1/6 496/1/6 500/1/6
f 501/1/6 502/1/6 507/1/6
f 507/1/6 502/1/6 508/1/6
f 503/1/6 504/1/6 509/1/6
f 509/1/6 504/1/6 510/1/6
f 505/1/6 506/1/6 511/1/6
f 511/1/6 506/1/6 512/1/6
f 513/1/6 514/1/6 515/1/6
f 515/1/6 514/1/6 516/1/6
f 517/1/6 518/1/6 521/1/6
f 521/1/6 518/1/6 522/1/6
f 519/1/6 520/1/6 523/1/6
f 523/1/6 520/1/6 524/1/6
f 525/1/6 526/1/6 529/1/6
f 529/1/6 526/1/6 530/1/6
f 527/1/6 528/1/6 531/1/6
f 531/1/6 528/1/6 532/1/6
f 533/1/6 534/1/6 537/1/6
f 537/1/6 534/1/6 538/1/6
f 535/1/6 536/1/6 539/1/6
f 539/1/6 536/1/6 540/1/6
f 541/1/6 542/1/6 551/1/6
f 551/1/6 542/1/6 552/1/6
f 543/1/6 544/1/6 553/1/6
f 553/1/6 544/1/6 554/1/6
f 545/1/6 546/1/6 555/1/6
f 555/1/6 546/1/6 556/1/6
f 547/1/6 548/1/6 557/1/6
f 557/1/6 548/1/6 558/1/6
f 549/1/6 550/1/6 559/1/6
f 559/1/6 550/1/6 560/1/6
f 561/3/6 562/3/6 563/3/6
f 563/3/6 562/3/6 564/3/6
