# MagicaVoxel @ Ephtracy

# group
o 

# material
mtllib laboratorio-0.mtl
usemtl palette

# normals
vn 0 0 1
vn 0 0 -1
vn 1 0 0
vn -1 0 0
vn 0 -1 0
vn 0 1 0

# texcoords
vt 0.919922 0.5
vt 0.923828 0.5
vt 0.935547 0.5
vt 0.966797 0.5
vt 0.974609 0.5
vt 0.982422 0.5
vt 0.986328 0.5
vt 0.994141 0.5

# verts
v -48.2 0 -29.1
v -49.8 0 -29.1
v -50.7 0 -29.1
v -49.8 0.1 -29.1
v -50.7 0.1 -29.1
v -48.2 3 -29.1
v -50.7 3 -29.1
v -47.9 0 -29.5
v -48.1 0 -29.5
v -47.7 0.1 -29.5
v -47.9 0.1 -29.5
v -48.1 0.1 -29.5
v -47.7 2.6 -29.5
v -47.8 2.6 -29.5
v -47.8 3 -29.5
v -48.1 3 -29.5
v -47.6 0.1 -29.6
v -47.7 0.1 -29.6
v -47.7 2.6 -29.6
v -47.8 2.6 -29.6
v -47.6 3 -29.6
v -47.8 3 -29.6
v -47.6 0.1 -31.6
v -48 0.1 -31.6
v -47.6 2.3 -31.6
v -48 2.3 -31.6
v -48.3 0.1 -32.4
v -50.3 0.1 -32.4
v -48.3 3 -32.4
v -50.3 3 -32.4
v -48.3 0.1 -29.5
v -50.3 0.1 -29.5
v -48.3 3 -29.5
v -50.3 3 -29.5
v -47.9 0 -30.1
v -48 0 -30.1
v -47.9 0.1 -30.1
v -48 0.1 -30.1
v -47.6 0.1 -30.3
v -48 0.1 -30.3
v -47.6 2.3 -30.3
v -48 2.3 -30.3
v -48 0 -31.3
v -48.1 0 -31.3
v -48 0.1 -31.3
v -48.1 0.1 -31.3
v -47.6 0.1 -32.4
v -47.9 0.1 -32.4
v -47.9 1.4 -32.4
v -48 1.4 -32.4
v -48 2.9 -32.4
v -48.1 2.9 -32.4
v -47.6 3 -32.4
v -48.1 3 -32.4
v -47.9 0.1 -32.5
v -48.1 0.1 -32.5
v -47.9 1.4 -32.5
v -48 1.4 -32.5
v -48 2.9 -32.5
v -48.1 2.9 -32.5
v -48.2 0 -32.9
v -50.7 0 -32.9
v -48.2 0.1 -32.9
v -50.7 0.1 -32.9
v -48.2 3 -32.9
v -50.7 3 -32.9
v -47.6 0.1 -29.6
v -47.6 3 -29.6
v -47.6 0.1 -30.2
v -47.6 2.4 -30.2
v -47.6 0.1 -30.3
v -47.6 2.3 -30.3
v -47.6 2.3 -30.7
v -47.6 2.4 -30.7
v -47.6 2.7 -30.7
v -47.6 2.4 -30.8
v -47.6 2.6 -30.8
v -47.6 2.4 -31.1
v -47.6 2.6 -31.1
v -47.6 2.3 -31.2
v -47.6 2.4 -31.2
v -47.6 2.7 -31.2
v -47.6 0.1 -31.6
v -47.6 2.3 -31.6
v -47.6 0.1 -31.7
v -47.6 1.1 -31.7
v -47.6 1.5 -31.7
v -47.6 2.4 -31.7
v -47.6 1.2 -31.8
v -47.6 1.4 -31.8
v -47.6 1.2 -31.9
v -47.6 1.4 -31.9
v -47.6 1.1 -32
v -47.6 1.5 -32
v -47.6 0.1 -32.4
v -47.6 3 -32.4
v -47.7 0.1 -29.5
v -47.7 2.6 -29.5
v -47.7 0.1 -29.6
v -47.7 2.6 -29.6
v -47.8 2.6 -29.5
v -47.8 3 -29.5
v -47.8 2.6 -29.6
v -47.8 3 -29.6
v -47.9 0 -29.5
v -47.9 0.1 -29.5
v -47.9 0 -30.1
v -47.9 0.1 -30.1
v -47.9 0.1 -32.4
v -47.9 1.4 -32.4
v -47.9 0.1 -32.5
v -47.9 1.4 -32.5
v -48 0 -30.1
v -48 0.1 -30.1
v -48 0.1 -30.2
v -48 0.1 -30.3
v -48 2.3 -30.3
v -48 0.1 -30.9
v -48 2.3 -30.9
v -48 0.1 -31
v -48 2.3 -31
v -48 0 -31.3
v -48 0.1 -31.3
v -48 0.1 -31.6
v -48 2.3 -31.6
v -48 1.4 -32.4
v -48 2.9 -32.4
v -48 1.4 -32.5
v -48 2.9 -32.5
v -48.2 0 -29.1
v -48.2 3 -29.1
v -48.2 0 -29.2
v -48.2 0.1 -29.2
v -48.2 0 -32.9
v -48.2 0.1 -32.9
v -48.2 3 -32.9
v -50.3 0.1 -29.5
v -50.3 3 -29.5
v -50.3 0.1 -32.4
v -50.3 3 -32.4
v -48.1 0 -29.5
v -48.1 0.1 -29.5
v -48.1 3 -29.5
v -48.1 0.1 -30.9
v -48.1 2.3 -30.9
v -48.1 0.1 -31
v -48.1 2.3 -31
v -48.1 0 -31.3
v -48.1 0.1 -31.3
v -48.1 2.9 -32.4
v -48.1 3 -32.4
v -48.1 0.1 -32.5
v -48.1 2.9 -32.5
v -48.3 0.1 -29.5
v -48.3 3 -29.5
v -48.3 0.1 -32.4
v -48.3 3 -32.4
v -50.7 0 -29.1
v -50.7 0.1 -29.1
v -50.7 3 -29.1
v -50.7 0 -32.9
v -50.7 0.1 -32.9
v -50.7 3 -32.9
v -47.9 0 -29.5
v -47.9 0 -30.1
v -48 0 -30.1
v -48 0 -31.3
v -48.1 0 -29.5
v -48.1 0 -31.3
v -48.2 0 -29.1
v -48.2 0 -29.2
v -48.2 0 -32.9
v -49.8 0 -29.1
v -49.8 0 -29.2
v -50.7 0 -29.1
v -50.7 0 -32.9
v -47.6 0.1 -29.6
v -47.6 0.1 -30.2
v -47.6 0.1 -30.3
v -47.6 0.1 -31.6
v -47.6 0.1 -31.7
v -47.6 0.1 -32.4
v -47.7 0.1 -29.5
v -47.7 0.1 -29.6
v -47.9 0.1 -29.5
v -47.9 0.1 -30.1
v -47.9 0.1 -32.4
v -47.9 0.1 -32.5
v -48 0.1 -30.1
v -48 0.1 -30.2
v -48 0.1 -30.3
v -48 0.1 -31.3
v -48 0.1 -31.6
v -48 0.1 -31.7
v -48.1 0.1 -31.3
v -48.1 0.1 -32.5
v -47.6 2.3 -30.3
v -47.6 2.3 -30.7
v -47.6 2.3 -31.2
v -47.6 2.3 -31.6
v -47.7 2.3 -30.7
v -47.7 2.3 -31.2
v -48 2.3 -30.3
v -48 2.3 -30.9
v -48 2.3 -31
v -48 2.3 -31.6
v -48.3 0.1 -29.5
v -48.3 0.1 -32.4
v -50.3 0.1 -29.5
v -50.3 0.1 -32.4
v -47.9 1.4 -32.4
v -47.9 1.4 -32.5
v -48 1.4 -32.4
v -48 1.4 -32.5
v -47.7 2.6 -29.5
v -47.7 2.6 -29.6
v -47.8 2.6 -29.5
v -47.8 2.6 -29.6
v -48 2.9 -32.4
v -48 2.9 -32.5
v -48.1 2.9 -32.4
v -48.1 2.9 -32.5
v -47.6 3 -29.6
v -47.6 3 -32.4
v -47.8 3 -29.5
v -47.8 3 -29.6
v -48.1 3 -29.5
v -48.1 3 -32.4
v -48.2 3 -29.1
v -48.2 3 -32.9
v -48.3 3 -29.5
v -48.3 3 -32.4
v -50.3 3 -29.5
v -50.3 3 -32.4
v -50.7 3 -29.1
v -50.7 3 -32.9

# faces
f 4/3/1 2/3/1 1/3/1
f 4/4/1 3/4/1 2/4/1
f 5/4/1 3/4/1 4/4/1
f 6/3/1 4/3/1 1/3/1
f 6/3/1 5/3/1 4/3/1
f 7/3/1 5/3/1 6/3/1
f 11/1/1 9/1/1 8/1/1
f 12/1/1 9/1/1 11/1/1
f 13/3/1 11/3/1 10/3/1
f 13/3/1 12/3/1 11/3/1
f 14/3/1 12/3/1 13/3/1
f 15/3/1 12/3/1 14/3/1
f 16/3/1 12/3/1 15/3/1
f 19/3/1 18/3/1 17/3/1
f 21/3/1 19/3/1 17/3/1
f 21/3/1 20/3/1 19/3/1
f 22/3/1 20/3/1 21/3/1
f 25/6/1 24/6/1 23/6/1
f 26/6/1 24/6/1 25/6/1
f 29/3/1 28/3/1 27/3/1
f 30/3/1 28/3/1 29/3/1
f 31/3/2 32/3/2 33/3/2
f 33/3/2 32/3/2 34/3/2
f 35/1/2 36/1/2 37/1/2
f 37/1/2 36/1/2 38/1/2
f 39/6/2 40/6/2 41/6/2
f 41/6/2 40/6/2 42/6/2
f 43/1/2 44/1/2 45/1/2
f 45/1/2 44/1/2 46/1/2
f 47/3/2 48/3/2 49/3/2
f 49/3/2 50/3/2 51/3/2
f 47/3/2 49/3/2 53/3/2
f 51/3/2 52/3/2 53/3/2
f 49/3/2 51/3/2 53/3/2
f 53/3/2 52/3/2 54/3/2
f 55/3/2 56/3/2 57/3/2
f 57/3/2 56/3/2 58/3/2
f 58/3/2 56/3/2 59/3/2
f 59/3/2 56/3/2 60/3/2
f 61/4/2 62/4/2 63/4/2
f 63/4/2 62/4/2 64/4/2
f 63/3/2 64/3/2 65/3/2
f 65/3/2 64/3/2 66/3/2
f 69/3/3 68/3/3 67/3/3
f 70/3/3 68/3/3 69/3/3
f 71/6/3 70/6/3 69/6/3
f 72/6/3 70/6/3 71/6/3
f 73/6/3 70/6/3 72/6/3
f 74/3/3 68/3/3 70/3/3
f 74/6/3 70/6/3 73/6/3
f 75/3/3 68/3/3 74/3/3
f 76/5/3 74/5/3 73/5/3
f 76/5/3 75/5/3 74/5/3
f 77/5/3 75/5/3 76/5/3
f 78/5/3 76/5/3 73/5/3
f 78/8/3 77/8/3 76/8/3
f 79/5/3 75/5/3 77/5/3
f 79/8/3 77/8/3 78/8/3
f 80/5/3 78/5/3 73/5/3
f 80/5/3 79/5/3 78/5/3
f 81/5/3 79/5/3 80/5/3
f 82/3/3 68/3/3 75/3/3
f 82/5/3 79/5/3 81/5/3
f 82/5/3 75/5/3 79/5/3
f 84/6/3 81/6/3 80/6/3
f 85/6/3 84/6/3 83/6/3
f 86/6/3 84/6/3 85/6/3
f 87/6/3 84/6/3 86/6/3
f 88/3/3 82/3/3 81/3/3
f 88/6/3 84/6/3 87/6/3
f 88/6/3 81/6/3 84/6/3
f 89/7/3 87/7/3 86/7/3
f 90/7/3 87/7/3 89/7/3
f 91/7/3 89/7/3 86/7/3
f 91/2/3 90/2/3 89/2/3
f 92/7/3 87/7/3 90/7/3
f 92/2/3 90/2/3 91/2/3
f 93/3/3 86/3/3 85/3/3
f 93/7/3 91/7/3 86/7/3
f 93/7/3 92/7/3 91/7/3
f 94/7/3 87/7/3 92/7/3
f 94/7/3 92/7/3 93/7/3
f 94/3/3 88/3/3 87/3/3
f 95/3/3 93/3/3 85/3/3
f 95/3/3 94/3/3 93/3/3
f 96/3/3 68/3/3 82/3/3
f 96/3/3 94/3/3 95/3/3
f 96/3/3 82/3/3 88/3/3
f 96/3/3 88/3/3 94/3/3
f 99/3/3 98/3/3 97/3/3
f 100/3/3 98/3/3 99/3/3
f 103/3/3 102/3/3 101/3/3
f 104/3/3 102/3/3 103/3/3
f 107/1/3 106/1/3 105/1/3
f 108/1/3 106/1/3 107/1/3
f 111/3/3 110/3/3 109/3/3
f 112/3/3 110/3/3 111/3/3
f 115/1/3 114/1/3 113/1/3
f 116/1/3 115/1/3 113/1/3
f 118/1/3 116/1/3 113/1/3
f 118/3/3 117/3/3 116/3/3
f 119/3/3 117/3/3 118/3/3
f 120/1/3 118/1/3 113/1/3
f 120/6/3 119/6/3 118/6/3
f 121/6/3 119/6/3 120/6/3
f 122/1/3 120/1/3 113/1/3
f 123/3/3 121/3/3 120/3/3
f 123/1/3 120/1/3 122/1/3
f 124/3/3 121/3/3 123/3/3
f 125/3/3 121/3/3 124/3/3
f 128/3/3 127/3/3 126/3/3
f 129/3/3 127/3/3 128/3/3
f 132/3/3 131/3/3 130/3/3
f 133/3/3 131/3/3 132/3/3
f 134/4/3 133/4/3 132/4/3
f 135/3/3 131/3/3 133/3/3
f 135/4/3 133/4/3 134/4/3
f 136/3/3 131/3/3 135/3/3
f 139/3/3 138/3/3 137/3/3
f 140/3/3 138/3/3 139/3/3
f 141/1/4 142/1/4 144/1/4
f 142/3/4 143/3/4 144/3/4
f 144/3/4 143/3/4 145/3/4
f 141/1/4 144/1/4 146/1/4
f 144/6/4 145/6/4 146/6/4
f 145/3/4 143/3/4 147/3/4
f 146/6/4 145/6/4 147/6/4
f 141/1/4 146/1/4 148/1/4
f 146/3/4 147/3/4 149/3/4
f 148/1/4 146/1/4 149/1/4
f 147/3/4 143/3/4 150/3/4
f 149/3/4 147/3/4 150/3/4
f 150/3/4 143/3/4 151/3/4
f 149/3/4 150/3/4 152/3/4
f 152/3/4 150/3/4 153/3/4
f 154/3/4 155/3/4 156/3/4
f 156/3/4 155/3/4 157/3/4
f 158/4/4 159/4/4 161/4/4
f 159/3/4 160/3/4 162/3/4
f 161/4/4 159/4/4 162/4/4
f 162/3/4 160/3/4 163/3/4
f 166/1/5 165/1/5 164/1/5
f 168/1/5 166/1/5 164/1/5
f 168/1/5 167/1/5 166/1/5
f 169/1/5 167/1/5 168/1/5
f 173/3/5 171/3/5 170/3/5
f 174/4/5 172/4/5 171/4/5
f 174/3/5 171/3/5 173/3/5
f 175/4/5 174/4/5 173/4/5
f 176/4/5 172/4/5 174/4/5
f 176/4/5 174/4/5 175/4/5
f 184/3/5 178/3/5 177/3/5
f 185/3/5 184/3/5 183/3/5
f 186/3/5 178/3/5 184/3/5
f 186/3/5 184/3/5 185/3/5
f 187/3/5 182/3/5 181/3/5
f 189/3/5 178/3/5 186/3/5
f 190/6/5 179/6/5 178/6/5
f 190/3/5 178/3/5 189/3/5
f 191/6/5 179/6/5 190/6/5
f 193/6/5 181/6/5 180/6/5
f 194/3/5 188/3/5 187/3/5
f 194/3/5 187/3/5 181/3/5
f 194/6/5 181/6/5 193/6/5
f 195/3/5 193/3/5 192/3/5
f 195/3/5 194/3/5 193/3/5
f 196/3/5 188/3/5 194/3/5
f 196/3/5 194/3/5 195/3/5
f 201/6/5 198/6/5 197/6/5
f 201/5/5 199/5/5 198/5/5
f 202/6/5 200/6/5 199/6/5
f 202/5/5 199/5/5 201/5/5
f 203/6/5 201/6/5 197/6/5
f 203/6/5 202/6/5 201/6/5
f 204/6/5 202/6/5 203/6/5
f 205/6/5 202/6/5 204/6/5
f 206/6/5 200/6/5 202/6/5
f 206/6/5 202/6/5 205/6/5
f 207/4/6 208/4/6 209/4/6
f 209/4/6 208/4/6 210/4/6
f 211/3/6 212/3/6 213/3/6
f 213/3/6 212/3/6 214/3/6
f 215/3/6 216/3/6 217/3/6
f 217/3/6 216/3/6 218/3/6
f 219/3/6 220/3/6 221/3/6
f 221/3/6 220/3/6 222/3/6
f 223/3/6 224/3/6 226/3/6
f 225/3/6 226/3/6 227/3/6
f 226/3/6 224/3/6 228/3/6
f 227/3/6 226/3/6 228/3/6
f 229/3/6 230/3/6 231/3/6
f 231/3/6 230/3/6 232/3/6
f 229/3/6 231/3/6 233/3/6
f 232/3/6 230/3/6 234/3/6
f 229/3/6 233/3/6 235/3/6
f 233/3/6 234/3/6 235/3/6
f 234/3/6 230/3/6 236/3/6
f 235/3/6 234/3/6 236/3/6
