# MagicaVoxel @ Ephtracy

# group
o 

# material
mtllib laboratorio-1.mtl
usemtl palette

# normals
vn -1 0 0
vn 1 0 0
vn 0 0 1
vn 0 0 -1
vn 0 -1 0
vn 0 1 0

# texcoords
vt 0.935547 0.5
vt 0.966797 0.5

# verts
v -34.4 0 -10.3
v -34.4 0 -11.9
v -34.4 0 -12.8
v -34.4 0.1 -11.9
v -34.4 0.1 -12.8
v -34.4 3 -10.3
v -34.4 3 -12.8
v -31.1 0.1 -10.4
v -31.1 0.1 -12.4
v -31.1 3 -10.4
v -31.1 3 -12.4
v -34 0.1 -10.4
v -34 0.1 -12.4
v -34 3 -10.4
v -34 3 -12.4
v -30.6 0 -10.3
v -30.6 0 -12.8
v -30.6 0.1 -10.3
v -30.6 0.1 -12.8
v -30.6 3 -10.3
v -30.6 3 -12.8
v -34.4 0 -10.3
v -34.4 3 -10.3
v -34.3 0 -10.3
v -34.3 0.1 -10.3
v -30.6 0 -10.3
v -30.6 0.1 -10.3
v -30.6 3 -10.3
v -34 0.1 -12.4
v -34 3 -12.4
v -31.1 0.1 -12.4
v -31.1 3 -12.4
v -34 0.1 -10.4
v -34 3 -10.4
v -31.1 0.1 -10.4
v -31.1 3 -10.4
v -34.4 0 -12.8
v -34.4 0.1 -12.8
v -34.4 3 -12.8
v -30.6 0 -12.8
v -30.6 0.1 -12.8
v -30.6 3 -12.8
v -34.4 0 -10.3
v -34.3 0 -10.3
v -30.6 0 -10.3
v -34.4 0 -11.9
v -34.3 0 -11.9
v -34.4 0 -12.8
v -30.6 0 -12.8
v -34 0.1 -10.4
v -31.1 0.1 -10.4
v -34 0.1 -12.4
v -31.1 0.1 -12.4
v -34.4 3 -10.3
v -30.6 3 -10.3
v -34 3 -10.4
v -31.1 3 -10.4
v -34 3 -12.4
v -31.1 3 -12.4
v -34.4 3 -12.8
v -30.6 3 -12.8

# faces
f 4/1/1 2/1/1 1/1/1
f 4/2/1 3/2/1 2/2/1
f 5/2/1 3/2/1 4/2/1
f 6/1/1 4/1/1 1/1/1
f 6/1/1 5/1/1 4/1/1
f 7/1/1 5/1/1 6/1/1
f 10/1/1 9/1/1 8/1/1
f 11/1/1 9/1/1 10/1/1
f 12/1/2 13/1/2 14/1/2
f 14/1/2 13/1/2 15/1/2
f 16/2/2 17/2/2 18/2/2
f 18/2/2 17/2/2 19/2/2
f 18/1/2 19/1/2 20/1/2
f 20/1/2 19/1/2 21/1/2
f 24/1/3 23/1/3 22/1/3
f 25/1/3 23/1/3 24/1/3
f 26/2/3 25/2/3 24/2/3
f 27/1/3 23/1/3 25/1/3
f 27/2/3 25/2/3 26/2/3
f 28/1/3 23/1/3 27/1/3
f 31/1/3 30/1/3 29/1/3
f 32/1/3 30/1/3 31/1/3
f 33/1/4 34/1/4 35/1/4
f 35/1/4 34/1/4 36/1/4
f 37/2/4 38/2/4 40/2/4
f 38/1/4 39/1/4 41/1/4
f 40/2/4 38/2/4 41/2/4
f 41/1/4 39/1/4 42/1/4
f 46/1/5 44/1/5 43/1/5
f 47/2/5 45/2/5 44/2/5
f 47/1/5 44/1/5 46/1/5
f 48/2/5 47/2/5 46/2/5
f 49/2/5 45/2/5 47/2/5
f 49/2/5 47/2/5 48/2/5
f 50/2/6 51/2/6 52/2/6
f 52/2/6 51/2/6 53/2/6
f 54/1/6 55/1/6 56/1/6
f 56/1/6 55/1/6 57/1/6
f 54/1/6 56/1/6 58/1/6
f 57/1/6 55/1/6 59/1/6
f 54/1/6 58/1/6 60/1/6
f 58/1/6 59/1/6 60/1/6
f 59/1/6 55/1/6 61/1/6
f 60/1/6 59/1/6 61/1/6
